<?xml version="1.0" encoding="UTF-8" standalone="no"?>
<!-- Created with Inkscape (http://www.inkscape.org/) -->

<svg
   width="534.19373mm"
   height="481.54166mm"
   viewBox="0 0 534.19373 481.54166"
   version="1.1"
   id="svg1"
   xml:space="preserve"
   inkscape:version="1.3.2 (091e20ef0f, 2023-11-25)"
   sodipodi:docname="arm.svg"
   xmlns:inkscape="http://www.inkscape.org/namespaces/inkscape"
   xmlns:sodipodi="http://sodipodi.sourceforge.net/DTD/sodipodi-0.dtd"
   xmlns="http://www.w3.org/2000/svg"
   xmlns:svg="http://www.w3.org/2000/svg"><sodipodi:namedview
     id="namedview1"
     pagecolor="#505050"
     bordercolor="#ffffff"
     borderopacity="1"
     inkscape:showpageshadow="0"
     inkscape:pageopacity="0"
     inkscape:pagecheckerboard="1"
     inkscape:deskcolor="#505050"
     inkscape:document-units="mm"
     inkscape:zoom="0.21035031"
     inkscape:cx="834.32253"
     inkscape:cy="1438.0773"
     inkscape:window-width="1920"
     inkscape:window-height="1011"
     inkscape:window-x="0"
     inkscape:window-y="32"
     inkscape:window-maximized="1"
     inkscape:current-layer="layer1" /><defs
     id="defs1" /><g
     inkscape:label="Layer 1"
     inkscape:groupmode="layer"
     id="layer1"
     transform="translate(51.633511,140.41803)"><path
       style="fill:#000000"
       d="m 220.53938,340.59826 c -1.21764,-0.37899 -2.58644,-1.58807 -3.11464,-2.75121 -0.97315,-2.14294 -0.39471,-5.9016 1.39673,-9.07587 0.73259,-1.29808 0.75549,-1.41468 0.30452,-1.55091 -4.39373,-1.32726 -5.65815,-5.45542 -3.57443,-11.66997 0.97049,-2.89439 4.28685,-10.66963 6.58436,-15.43709 2.2424,-4.65309 3.76477,-8.17831 7.08418,-16.40417 2.88807,-7.15697 6.01679,-14.3195 8.42812,-19.2944 l 1.46502,-3.02253 -0.62099,-0.738 c -0.34155,-0.40591 -0.66571,-0.87216 -0.72036,-1.03612 -0.15286,-0.45857 -3.85178,0.51443 -9.60854,2.52752 -8.29274,2.89991 -7.97167,2.82612 -12.43541,2.85778 -3.58452,0.0254 -4.12245,-0.0323 -5.55625,-0.59629 -2.01846,-0.79396 -3.34798,-1.62986 -4.09516,-2.57474 -0.49191,-0.62206 -0.56414,-0.95938 -0.43744,-2.04285 0.20292,-1.73539 0.74058,-2.24615 4.24972,-4.03711 7.83504,-3.99876 13.37441,-7.11997 14.872,-8.37978 0.8935,-0.75163 2.67944,-2.30748 3.96875,-3.45744 3.78198,-3.37321 4.57675,-3.80477 16.63171,-9.03103 2.91041,-1.26177 6.60135,-2.86575 8.20208,-3.56439 1.60073,-0.69864 4.10104,-1.76939 5.55625,-2.37944 1.45521,-0.61006 3.36021,-1.54075 4.23333,-2.06822 1.55042,-0.93663 5.98167,-4.69596 6.72182,-5.70259 0.94516,-1.28545 3.56504,-4.34477 5.95794,-6.95732 2.61544,-2.8555 7.2552,-9.56136 11.59428,-16.75721 1.0091,-1.67349 2.34249,-3.69755 2.96307,-4.49792 0.62058,-0.80036 1.60843,-2.28864 2.19521,-3.30729 0.58678,-1.01864 1.85788,-3.16177 2.82466,-4.7625 6.51053,-10.77962 12.42585,-25.6089 16.51716,-41.40729 1.25523,-4.84699 2.27005,-8.05228 5.86385,-18.52083 1.47372,-4.29287 3.39686,-10.24599 4.27365,-13.22917 2.14124,-7.28531 3.42547,-10.74389 6.43412,-17.327789 2.77497,-6.072532 5.96007,-12.164819 10.29595,-19.693521 1.54398,-2.68094 2.80725,-5.014807 2.80725,-5.186371 0,-0.171564 0.66507,-1.667065 1.47794,-3.323334 2.06423,-4.205987 3.09458,-8.49531 3.68081,-15.323149 0.25394,-2.957592 1.12297,-9.632487 1.87735,-14.419791 2.04843,-12.999156 2.43633,-14.493094 6.24263,-24.041966 3.05313,-7.6594089 3.26369,-8.2918109 3.66144,-10.9969025 0.16197,-1.10153867 0.63718,-4.264985 1.05603,-7.0298808 1.08972,-7.1935157 1.48652,-10.7013947 2.37931,-21.0343747 0.50745,-5.873148 0.80787,-8.356552 1.31229,-10.847916 0.66041,-3.261803 1.92669,-9.971448 2.79627,-14.816667 0.88957,-4.956631 2.94919,-13.083334 4.60268,-18.160923 1.30319,-4.001894 4.53295,-11.050679 6.52959,-14.250534 0.54481,-0.873125 1.53177,-2.480469 2.19323,-3.571875 2.92988,-4.834269 7.41982,-10.065384 10.87198,-12.666656 5.67926,-4.27946 17.22462,-10.47558 24.47574,-13.13556 1.30968,-0.48044 4.06296,-1.53795 6.11839,-2.35003 2.05543,-0.81207 4.97246,-1.77088 6.48229,-2.13067 1.50983,-0.3598 4.21055,-1.07051 6.00161,-1.57936 3.69889,-1.05088 6.2598,-1.5246 11.56021,-2.13841 8.55433,-0.99063 11.76917,-1.92928 18.38854,-5.36896 7.33664,-3.81242 12.22069,-6.86497 16.47031,-10.29402 1.12778,-0.91003 2.05052,-1.56368 2.05052,-1.45257 0,0.26337 -2.4151,2.57736 -4.10104,3.92935 -3.84,3.07936 -15.1765,10.20682 -18.68036,11.74467 -2.53729,1.11362 -6.28387,2.03459 -9.13692,2.246 -3.15288,0.23363 -9.96764,1.07939 -11.60564,1.44034 -0.7276,0.16034 -2.87073,0.75707 -4.7625,1.32608 -1.89177,0.569 -4.64911,1.33749 -6.12742,1.70775 -1.47831,0.37026 -4.33581,1.3114 -6.35,2.09142 -2.01419,0.78002 -4.317,1.62905 -5.11737,1.88674 -4.14799,1.33547 -9.0101,3.70889 -15.54024,7.5859 -7.04551,4.18299 -9.63941,6.035181 -12.50755,8.931109 -2.77579,2.802691 -6.51395,7.608879 -7.525,9.674964 -3.41407,6.976652 -8.20182,17.404143 -8.87151,19.321704 -1.30923,3.74876 -3.3527,11.829776 -3.98092,15.742708 -0.88103,5.487603 -1.49136,8.831544 -2.24556,12.303125 -1.53426,7.062272 -2.59968,16.199651 -2.54515,21.828124 0.0562,5.801454 -1.41178,17.73642208 -2.74924,22.351707 -0.79059,2.7281586 -2.80455,7.800625 -4.62439,11.647251 -2.34312,4.952668 -3.15371,7.748059 -4.10467,14.155208 -1.9595,13.20221 -2.0811,14.177752 -2.78671,22.357291 -0.15064,1.74625 -0.54955,4.558087 -0.88648,6.248528 -0.62741,3.147872 -1.78302,5.816779 -6.8031,15.711888 -0.73827,1.455209 -3.27422,6.455834 -5.63545,11.1125 -5.19832,10.251816 -7.35008,15.099693 -9.10135,20.505213 -0.73076,2.25557 -1.98106,6.1251 -2.77845,8.59895 -0.79739,2.47386 -2.88963,8.72464 -4.64943,13.89063 -1.86834,5.48461 -3.86317,11.9639 -4.79437,15.57231 -4.20615,16.29894 -10.77072,31.52004 -18.90161,43.82664 -2.87765,4.35551 -4.23247,6.52242 -7.65239,12.23926 -5.04673,8.43628 -9.87876,14.9466 -17.25099,23.24271 -4.21949,4.74829 -5.80822,5.82515 -12.60172,8.54165 -1.79103,0.71617 -4.44704,1.85721 -5.90225,2.53563 -1.45521,0.67843 -4.31271,1.88516 -6.35,2.68163 -10.42737,4.07653 -10.8842,4.32893 -16.38581,9.05325 -3.68078,3.16074 -4.74102,3.82629 -13.77669,8.64811 -3.34698,1.78609 -6.3475,3.46867 -6.66783,3.73906 -1.04019,0.87803 -0.88426,1.45927 0.60798,2.26616 2.32334,1.25629 4.32349,1.625 7.76259,1.43095 3.24142,-0.1829 2.7845,-0.0548 11.65872,-3.2676 2.40109,-0.86927 5.19906,-1.7891 6.2177,-2.04407 1.01865,-0.25496 1.91771,-0.56847 1.99791,-0.69667 0.25269,-0.40395 1.89774,0.24287 2.77145,1.0897 l 0.83491,0.80923 1.26871,-2.19387 c 0.69779,-1.20663 1.73379,-2.64036 2.30223,-3.18606 2.04825,-1.96631 1.92408,-1.31081 -0.87322,4.61012 -1.14635,2.42642 -2.08428,4.51501 -2.08428,4.64131 0,0.12629 -0.59169,1.26156 -1.31488,2.5228 -0.72319,1.26125 -1.72115,3.33985 -2.21769,4.61911 -0.49655,1.27926 -2.00071,4.9453 -3.34258,8.14676 -1.34187,3.20146 -3.12983,7.54724 -3.97324,9.65729 -1.88262,4.70997 -4.34278,10.2883 -5.93928,13.46713 -1.93257,3.84798 -5.84417,12.93688 -6.60443,15.34591 -1.34362,4.2575 -1.17351,6.7944 0.56556,8.43456 0.76203,0.71869 1.10942,0.86562 1.89196,0.80022 0.93556,-0.0782 0.99685,-0.15384 2.55609,-3.15471 2.58438,-4.97385 8.09622,-13.37696 14.90419,-22.72228 1.9612,-2.69213 4.13321,-5.67338 4.8267,-6.62499 1.18534,-1.62653 2.35177,-2.90087 2.35177,-2.56934 0,0.51068 -5.31941,8.98492 -7.9305,12.63392 -1.71814,2.40109 -3.59423,5.13953 -4.16908,6.08541 -0.57485,0.94589 -1.64517,2.61276 -2.37849,3.70417 -2.37089,3.52861 -5.14472,8.2724 -6.34308,10.84792 -0.64324,1.38244 -1.52122,3.06179 -1.95106,3.73187 -1.73628,2.70668 -3.02736,7.0642 -2.62353,8.85471 0.11986,0.53144 0.54739,1.31014 0.95008,1.73046 1.00201,1.04586 2.39265,1.03267 4.54552,-0.0431 2.04451,-1.02166 3.62362,-2.73803 6.67786,-7.25838 1.30017,-1.92428 3.08183,-4.35581 3.95925,-5.40341 0.87742,-1.0476 2.33155,-2.99975 3.2314,-4.33811 0.89985,-1.33836 2.84326,-4.04073 4.31869,-6.00526 3.30781,-4.40434 5.13977,-7.12013 8.47764,-12.56771 2.87536,-4.69273 4.56455,-7.17588 5.38909,-7.92208 0.82022,-0.74229 0.66795,-0.28744 -0.60282,1.80067 -0.63197,1.03844 -1.74514,2.95964 -2.47372,4.26933 -3.3377,5.99982 -13.53009,21.54302 -17.00294,25.92916 -2.72714,3.44432 -3.98287,5.25671 -3.97438,5.73621 0.003,0.19207 0.33082,0.94308 0.7276,1.66891 0.93342,1.7075 1.8352,2.17354 3.33635,1.72418 1.33407,-0.39934 3.33708,-1.71271 4.9257,-3.22979 2.82246,-2.69535 7.8972,-8.32754 8.96891,-9.95414 0.64003,-0.97141 1.65765,-2.36151 2.26137,-3.08912 0.60371,-0.7276 2.6794,-3.44168 4.61263,-6.03127 3.03811,-4.06962 8.42681,-10.32466 9.96193,-11.56352 1.04298,-0.8417 -2.43329,4.84127 -4.14321,6.77327 -0.63603,0.71864 -1.8011,2.19732 -2.58904,3.28595 -2.92738,4.04448 -5.25096,7.06959 -7.73067,10.0647 -2.83543,3.42475 -3.13983,3.89382 -3.13983,4.83829 0,0.82366 1.37188,2.02529 2.31224,2.02529 2.29004,0 8.85656,-6.92575 17.43476,-18.38854 5.05386,-6.75332 6.67444,-8.83327 8.9675,-11.50938 5.97369,-6.97157 8.81669,-10.78889 10.42984,-14.00423 0.4067,-0.81064 1.53404,-3.61702 2.5052,-6.23639 0.97116,-2.61938 1.98899,-5.29828 2.26185,-5.95313 1.15223,-2.76528 3.45082,-9.32786 4.09372,-11.68771 1.06962,-3.92623 2.07964,-6.68692 3.66155,-10.00812 0.79709,-1.67349 1.59959,-3.51896 1.78332,-4.10104 0.91333,-2.89352 3.42737,-7.17972 6.58712,-11.23043 0.95871,-1.22903 2.45748,-3.15261 3.3306,-4.27463 0.87313,-1.12202 2.96292,-3.80739 4.644,-5.96749 1.68107,-2.1601 3.75913,-4.93948 4.6179,-6.17641 2.3651,-3.40653 10.18498,-15.09058 10.18498,-15.21784 0,-0.30831 3.08608,-5.27771 5.83036,-9.38841 3.65218,-5.47064 4.60859,-7.0157 7.11869,-11.50005 2.54517,-4.54704 6.67745,-11.18856 11.52923,-18.53015 2.2119,-3.34698 5.36471,-8.40714 7.00627,-11.2448 1.64155,-2.83765 4.57981,-7.60015 6.52946,-10.58333 1.94966,-2.98318 4.62291,-7.32896 5.94057,-9.65729 1.31766,-2.32833 3.67905,-6.19787 5.24752,-8.59896 1.56848,-2.40109 4.04417,-6.70075 5.50153,-9.55479 1.45736,-2.85404 3.62921,-6.93287 4.82632,-9.06405 2.14213,-3.81357 5.64073,-11.092633 7.20152,-14.983241 0.69437,-1.730849 3.94626,-11.056957 6.68861,-19.182292 1.13023,-3.348754 4.15497,-14.138124 6.06645,-21.639215 0.80788,-3.170319 2.55064,-9.004382 3.87281,-12.964584 3.53215,-10.579625 3.79361,-12.09514 2.90185,-16.820399 -0.85076,-4.507996 -1.08241,-8.546352 -1.31499,-22.9237167 -0.23928,-14.7915243 -0.2011,-14.4688513 -2.35,-19.8609353 -1.68403,-4.225611 -1.91173,-5.286408 -2.8075,-13.079689 -0.0988,-0.859691 -0.0861,-0.878648 0.17752,-0.264583 0.15618,0.363802 0.72933,1.673489 1.27367,2.910416 0.54433,1.236927 1.19681,2.903802 1.44996,3.704167 0.25314,0.800364 1.15945,3.042027 2.01402,4.981473 2.81425,6.386956 3.29781,9.501617 3.04675,19.6247763 -0.33669,13.5765976 0.27023,22.1025167 2.33549,32.8083327 0.37812,1.960104 0.80355,5.73223 1.04441,9.260416 0.72531,10.624612 0.91566,12.576264 1.46884,15.059706 0.55992,2.513707 3.10962,10.274176 4.36295,13.27942 1.84699,4.428721 3.94186,10.122303 4.88778,13.284338 0.57426,1.919641 1.63133,5.156622 2.34904,7.193291 2.1389,6.069611 2.26726,6.933836 2.08107,14.011699 -0.0916,3.48424 -0.34193,7.22896 -0.58422,8.74134 -0.23313,1.4552 -0.52582,4.11825 -0.65042,5.91788 -0.21181,3.0592 -0.49971,4.17433 -0.9074,3.51468 -0.40612,-0.65712 -0.47855,-6.76232 -0.16012,-13.49765 0.40312,-8.526913 0.24789,-10.568242 -1.13953,-14.984913 -0.50284,-1.600729 -1.41081,-4.51776 -2.01771,-6.482292 -2.33229,-7.54964 -4.03017,-12.653252 -4.92922,-14.816666 -1.64622,-3.961315 -4.61739,-13.143784 -5.28873,-16.344921 -0.3578,-1.706074 -0.77716,-4.649766 -0.93192,-6.541537 -0.64651,-7.90311 -1.30615,-14.855983 -1.46295,-15.420158 -0.1379,-0.496131 -0.33162,-0.213718 -1.08897,1.5875 -1.69313,4.026806 -2.91292,7.979238 -4.14845,13.442036 -1.94136,8.583573 -2.23879,9.787818 -4.1807,16.92708 -1.93237,7.104171 -2.21189,8.008691 -4.04728,13.096875 -0.6299,1.74625 -2.12085,5.913437 -3.31323,9.260416 -3.1223,8.76423 -6.47793,16.22927 -10.22827,22.75417 -1.91515,3.332 -3.98352,7.10379 -9.28588,16.93333 -0.94198,1.74625 -2.27302,3.88937 -2.95787,4.7625 -0.68484,0.87312 -2.17511,3.37344 -3.3117,5.55625 -1.13659,2.18281 -3.9943,6.88578 -6.35047,10.45104 -2.35616,3.56526 -5.42489,8.26823 -6.8194,10.45104 -1.3945,2.18281 -3.92218,5.93115 -5.61706,8.32965 -3.85721,5.45849 -11.0946,16.76661 -13.62015,21.28091 -2.60657,4.65912 -4.71246,8.0302 -7.94783,12.72277 -1.50497,2.18282 -4.06706,6.29047 -5.69352,9.12813 -3.55859,6.20857 -4.15491,7.14918 -7.87733,12.42531 -3.00393,4.25773 -4.17117,5.72848 -7.03043,8.85842 -0.92648,1.01419 -2.58745,3.03986 -3.69104,4.50148 -1.10359,1.46162 -2.99605,3.96718 -4.20547,5.56791 -3.06294,4.05396 -7.66789,13.58355 -9.33333,19.31459 -1.87416,6.44927 -2.19846,7.42921 -3.87196,11.69968 -0.95693,2.44194 -2.19925,5.69006 -2.76069,7.21802 -0.56145,1.52797 -1.32764,3.59835 -1.70266,4.60085 -2.45165,6.5538 -5.84609,11.69315 -12.05629,18.2538 -1.33722,1.41268 -3.04249,3.70428 -4.76787,6.40721 -6.45101,10.10599 -10.12828,14.67783 -15.98659,19.8757 -5.41458,4.80415 -7.32637,5.45661 -9.7014,3.31091 l -1.07088,-0.96747 -0.54379,0.78398 c -0.98389,1.41846 -5.05529,5.29551 -6.79376,6.46944 -4.18067,2.82308 -6.95302,2.80874 -8.80253,-0.0455 l -0.8491,-1.31039 -0.53165,0.74565 c -1.5058,2.11193 -3.49259,3.84542 -5.5606,4.85166 -2.32762,1.13256 -3.58248,1.41323 -4.72651,1.05716 z m -257.557458,-0.69068 c -1.770393,-0.90348 -2.974728,-2.93276 -2.96838,-5.00166 0.0046,-1.49361 0.802563,-4.18899 1.808529,-6.10877 l 1.005651,-1.91918 -0.84938,-0.15934 c -1.306052,-0.24502 -2.825272,-1.50509 -3.552968,-2.9469 -0.5491,-1.08796 -0.655217,-1.66983 -0.647448,-3.55019 0.0077,-1.87411 0.167731,-2.712 0.959886,-5.02708 1.193174,-3.48706 3.583186,-9.09363 6.428959,-15.08125 2.602709,-5.47621 3.769536,-8.18601 7.405323,-17.19792 4.37061,-10.83328 7.142795,-16.90408 9.511312,-20.82879 0.809966,-1.34214 1.472665,-2.49443 1.472665,-2.56065 0,-0.0662 -0.649757,-0.20158 -1.443905,-0.3008 -2.30271,-0.2877 -3.80968,0.11986 -15.883464,4.29575 -3.123785,1.0804 -6.909872,1.49237 -10.130154,1.10227 -3.449994,-0.41792 -7.470002,-2.72453 -7.466,-4.28386 0.0027,-1.06603 0.522945,-2.46263 1.129555,-3.03251 0.331467,-0.3114 4.051454,-2.36388 8.266638,-4.56106 7.911902,-4.12412 9.253649,-4.9754 12.252686,-7.77376 4.755989,-4.43775 6.050664,-5.2313 14.249099,-8.73374 3.174831,-1.35631 7.498826,-3.24434 9.608878,-4.19562 2.110052,-0.95128 5.33769452,-2.34216 7.172539,-3.09084 1.8348444,-0.74868 4.0769268,-1.79951 4.9824052,-2.33516 2.1592283,-1.27735 6.5937298,-5.22843 7.9910728,-7.11994 0.608429,-0.8236 2.535791,-3.05405 4.283027,-4.95656 3.144825,-3.42429 7.242244,-9.27303 12.33995,-17.61431 0.933806,-1.52797 2.189786,-3.43297 2.791066,-4.23333 2.064182,-2.74764 7.101817,-11.51411 9.806729,-17.06562 4.927005,-10.11211 8.806099,-20.88191 12.007584,-33.3375 0.598457,-2.32834 2.526266,-8.46006 4.284021,-13.62605 3.450832,-10.14189 4.454306,-13.24171 6.590262,-20.35791 1.652106,-5.5042 2.628029,-8.03392 5.670769,-14.699376 2.575169,-5.641192 5.709342,-11.624705 9.960689,-19.016157 1.579581,-2.746282 2.872523,-5.127532 2.873205,-5.291667 6.81e-4,-0.164134 0.716511,-1.772567 1.590732,-3.574296 2.041341,-4.207107 3.089052,-8.448015 3.570153,-14.451213 0.340644,-4.250568 1.160506,-10.254263 2.781737,-20.370149 1.309592,-8.171365 1.716147,-9.570005 5.692067,-19.581933 2.860808,-7.203932 2.958418,-7.5641404 4.230128,-15.6104167 0.93817,-5.9359133 1.51259,-11.0897103 2.91942,-26.1937493 0.23043,-2.473854 0.70206,-5.926667 1.04808,-7.672917 0.62296,-3.143892 1.69844,-8.841856 2.24728,-11.906249 1.09302,-6.102676 1.48912,-7.95439 2.63813,-12.332848 3.13538,-11.947743 5.88878,-18.237469 12.14855,-27.751527 3.28395,-4.991199 7.31202,-9.414464 10.90247,-11.972122 4.377,-3.11795 13.62921,-8.23981 19.15397,-10.6033 8.61544,-3.68568 13.26449,-5.30163 21.74823,-7.55939 5.31788,-1.41524 7.66398,-1.85415 13.57364,-2.5394 7.97463,-0.9247 10.78214,-1.78154 17.99167,-5.49098 7.12157,-3.66419 12.10465,-6.80038 16.24461,-10.2238 2.32846,-1.92546 2.33501,-1.39119 0.009,0.73464 -2.93256,2.6802 -8.49656,6.53872 -15.28458,10.59955 -6.34195,3.79398 -9.21571,4.77614 -15.89294,5.43169 -8.7442,0.85848 -10.78845,1.22076 -15.63547,2.77088 -1.30968,0.41885 -3.81933,1.12164 -5.57698,1.56175 -1.75766,0.44011 -4.37703,1.2699 -5.82083,1.84398 -1.44381,0.57407 -3.99432,1.52759 -5.66781,2.11892 -4.93026,1.74213 -9.5908,3.98036 -14.94896,7.17925 -6.42242,3.83428 -9.9228,6.20942 -12.1248,8.227156 -3.4407,3.152779 -8.2083,9.361123 -9.2866,12.092958 -0.32928,0.834218 -2.09766,4.612385 -3.92975,8.395927 -3.51862,7.266519 -4.73393,10.405812 -6.03788,15.596623 -0.44057,1.753836 -1.02549,3.962699 -1.29983,4.908584 -0.27434,0.945886 -0.75727,3.446198 -1.07319,5.55625 -0.31592,2.110052 -1.04389,6.158177 -1.61772,8.995833 -2.12508,10.508858 -3.1271,18.695926 -3.1271,25.550193 0,5.473788 -1.0914,14.6810028 -2.3937,20.1937267 -0.60304,2.5526966 -2.63837,7.8315803 -5.00962,12.9931243 -2.662493,5.795489 -2.95075,6.911244 -4.614115,17.85983 -1.011788,6.659781 -1.697842,12.315083 -2.011398,16.580408 -0.50494,6.868738 -1.325402,10.635814 -3.044594,13.978966 -0.636081,1.236927 -2.345839,4.68974 -3.799462,7.672917 -1.453623,2.983177 -4.016498,8.043333 -5.695278,11.244791 -5.522289,10.531086 -8.703906,17.927913 -11.15298,25.929163 -0.935381,3.05594 -3.182519,9.8425 -4.993641,15.08125 -3.651558,10.5623 -4.733123,14.01367 -6.122602,19.53776 -2.70139,10.73981 -6.406181,20.71545 -11.391403,30.67286 -2.897288,5.787 -4.512003,8.66297 -6.691458,11.91812 -0.956517,1.42862 -2.208159,3.33362 -2.781426,4.23334 -0.573267,0.89971 -1.538861,2.40974 -2.145765,3.35563 -0.606903,0.94589 -1.73831,2.85089 -2.514236,4.23333 -2.586087,4.60757 -11.08516,16.86192 -13.135818,18.93983 -0.418829,0.4244 -1.114091,1.24285 -1.545025,1.81878 -1.865616,2.49336 -6.824784,7.71939 -8.2982549,8.74481 -1.8953968,1.31905 -4.4518457,2.59313 -8.10028754,4.03701 -1.45774311,0.57691 -4.09229566,1.71618 -5.85456116,2.53172 -1.7622655,0.81553 -5.3823054,2.32566 -8.0445334,3.35583 -8.50452,3.2909 -9.210194,3.68658 -14.096029,7.90385 -3.839229,3.31388 -5.159862,4.20121 -10.364849,6.96414 -10.260497,5.44652 -10.989908,5.87355 -11.159343,6.53322 -0.188546,0.73407 0.212463,1.12187 2.001074,1.93516 3.286925,1.49459 8.460239,1.41916 12.862435,-0.18752 11.906303,-4.34547 14.026605,-4.8941 16.948161,-4.38533 0.943595,0.16432 2.695494,0.65975 3.893108,1.10096 1.197614,0.4412 2.951386,1.08963 3.8972718,1.44095 3.1897735,1.18474 7.5190366,0.76773 12.2325671,-1.17828 l 1.9226406,-0.79377 -1.5268435,1.40934 c -1.9996311,1.84575 -4.07044325,2.91887 -6.6752395,3.45921 -2.9287393,0.60754 -4.8472309,0.36779 -8.4730105,-1.05883 -4.565097,-1.79621 -4.167504,-1.84353 -4.877281,0.5805 -0.957818,3.27114 -2.501468,7.34383 -5.697804,15.0328 -1.633328,3.92906 -3.538067,8.5725 -4.232754,10.31875 -1.655787,4.16218 -4.022463,9.50596 -5.644991,12.74596 -1.825227,3.64477 -5.790518,12.75516 -6.692742,15.3768 -1.754298,5.09756 -1.466303,8.14528 0.906398,9.592 1.793939,1.09384 1.675324,1.23202 6.141909,-7.15539 1.04618,-1.96453 2.77308,-4.94109 3.837555,-6.61458 1.064476,-1.67349 2.481598,-3.93568 3.14916,-5.02709 0.667562,-1.0914 1.927425,-2.94738 2.799697,-4.12439 0.872271,-1.17701 2.2315,-3.08012 3.020509,-4.22913 0.789009,-1.14901 1.483673,-1.94177 1.543699,-1.7617 0.144903,0.43472 -3.005276,6.42115 -5.810126,11.04127 -4.953888,8.15998 -6.309504,10.46624 -8.164882,13.89062 -5.099557,9.41201 -6.068877,11.70343 -6.068877,14.3465 0,1.18773 0.107236,1.43341 1.027206,2.35338 1.304862,1.30486 2.021996,1.3193 4.47884,0.0902 2.25347,-1.12736 3.430187,-2.3715 6.594722,-6.97257 4.103626,-5.96646 4.748375,-6.97868 7.333026,-11.51245 1.402526,-2.46019 3.94376,-6.5883 5.647188,-9.17359 1.703428,-2.58529 3.7283734,-5.69209 4.4998783,-6.90401 0.7715048,-1.21192 1.809821,-2.67974 2.3073692,-3.26182 l 0.9046332,-1.05834 -0.5429644,1.81605 c -1.2278986,4.10693 -2.9144586,7.36232 -6.9594613,13.43311 -1.031147,1.54756 -2.618463,4.00225 -3.52737,5.45485 -0.908906,1.45261 -3.15579,4.81267 -4.993075,7.46681 l -3.340518,4.8257 0.618673,1.32089 c 1.145039,2.44471 2.470462,2.87196 5.016049,1.61694 1.981766,-0.97705 6.434493,-5.5099 9.1785661,-9.34372 3.9290464,-5.48939 7.8246037,-10.41439 9.94075992,-12.56771 1.14407248,-1.16417 2.02696428,-1.99761 1.96198188,-1.85208 -0.527627,1.18156 -5.6884751,9.44418 -7.2408785,11.59279 -2.308297,3.19481 -2.5134726,4.15654 -1.1343262,5.31702 0.4477276,0.37674 0.9882521,0.68498 1.2011654,0.68498 0.9990836,0 2.8606163,-1.36762 5.53388192,-4.06559 3.53036828,-3.563 7.12737918,-7.93622 13.73936348,-16.7042 2.74345,-3.63803 5.961696,-7.74568 7.151657,-9.12813 5.855949,-6.8032 8.822396,-10.76999 10.387687,-13.89062 0.807658,-1.61019 2.203479,-5.09558 3.867526,-9.6573 0.504297,-1.38244 1.567902,-4.23994 2.363567,-6.35 0.795665,-2.11005 1.8176,-5.05684 2.270965,-6.54843 0.453366,-1.49159 1.177905,-3.87769 1.610088,-5.30244 0.432183,-1.42475 1.42543,-3.8953 2.207216,-5.4901 0.781786,-1.59481 1.635528,-3.55449 1.897205,-4.35486 1.070628,-3.27462 3.603902,-7.65704 6.719129,-11.62372 0.963667,-1.22705 2.466496,-3.1568 3.339621,-4.28833 0.873125,-1.13153 2.962923,-3.81851 4.643995,-5.97107 1.681072,-2.15257 3.75913,-4.92578 4.617907,-6.16271 2.365097,-3.40654 10.184972,-15.09058 10.184972,-15.21785 0,-0.30453 3.096152,-5.28632 6.076298,-9.77693 4.090814,-6.16421 4.398846,-6.66203 7.290365,-11.7823 2.592259,-4.59035 8.867676,-14.61498 12.173737,-19.44688 1.19481,-1.74625 3.6952,-5.79437 5.55643,-8.99583 1.86123,-3.20146 4.87243,-8.08302 6.69157,-10.84792 1.81913,-2.76489 4.49362,-7.11067 5.9433,-9.65729 1.44968,-2.54661 3.84659,-6.47568 5.32645,-8.73125 1.47986,-2.25557 3.95182,-6.54473 5.49324,-9.53147 1.54142,-2.98674 3.86556,-7.33252 5.16476,-9.65729 3.50962,-6.280077 7.03131,-14.115435 9.035,-20.101863 0.58448,-1.74625 2.03036,-5.972969 3.21307,-9.392708 2.48406,-7.182546 4.56161,-14.357085 8.04468,-27.781249 1.18786,-4.578139 2.43336,-8.576619 3.91477,-12.567708 1.14298,-3.079322 1.17243,-3.234799 0.9771,-5.159375 -0.11077,-1.091407 -0.20618,-4.1275 -0.21203,-6.746875 -0.009,-3.999309 -0.12228,-5.356093 -0.7073,-8.466667 -0.38317,-2.037291 -0.85653,-4.010952 -1.05192,-4.385912 -0.44348,-0.8510364 -1.60536,-4.8130647 -2.11345,-7.2069057 -0.73132,-3.44554268 -0.35806,-15.0826153 0.68148,-21.2462343 0.29736,-1.763146 0.88515,-4.561114 1.30619,-6.217708 l 0.76553,-3.011989 -0.10717,1.984375 c -0.0589,1.091406 -0.1701,4.425156 -0.24704,7.408333 -0.0769,2.983177 -0.20979,7.9849218 -0.29524,11.114988 -0.12526,4.5880049 -0.0721,6.17771729 0.27445,8.2020832 0.51732,3.0221659 1.53543,6.4818412 2.49084,8.4641788 l 0.70134,1.455208 0.0217,9.525 0.0217,9.525 0.85433,4.233333 c 0.46989,2.328333 1.19459,5.543021 1.61045,7.14375 0.41586,1.600729 1.18745,5.232135 1.71463,8.069791 0.52719,2.837656 1.07265,5.589907 1.21214,6.116114 0.13949,0.526206 0.25362,1.35135 0.25362,1.833653 0,0.482304 0.72305,3.385521 1.60678,6.451595 2.54165,8.818185 4.67971,16.125913 5.84987,19.994471 0.59424,1.964531 1.60761,5.595937 2.25195,8.069791 0.64435,2.473854 1.45601,5.591123 1.8037,6.927264 0.9623,3.698036 1.24308,8.582726 0.7805,13.577946 -0.20888,2.25557 -0.38131,5.14964 -0.38317,6.43127 -0.004,2.40779 -0.44828,4.87858 -0.81006,4.49997 -0.35455,-0.37103 -0.78079,-7.42299 -0.78157,-12.93058 -4.1e-4,-2.90219 -0.13166,-6.34415 -0.29166,-7.64881 -0.27573,-2.24833 -2.98294,-12.320374 -4.6961,-17.471643 -0.43556,-1.309687 -1.28383,-4.107656 -1.88505,-6.217708 -0.60121,-2.110052 -1.73164,-5.741458 -2.51206,-8.069792 -1.75946,-5.249211 -2.06847,-6.44532 -2.94303,-11.392056 -1.11666,-6.316048 -1.13016,-6.401193 -1.69718,-10.700651 -0.29747,-2.255573 -0.90742,-5.583951 -1.35544,-7.396396 -0.44802,-1.812444 -1.0174,-4.49135 -1.2653,-5.953124 l -0.45073,-2.657772 -0.47111,2.645833 c -0.69765,3.918118 -2.94272,14.228199 -4.12584,18.947226 -2.36833,9.446397 -3.95431,14.617123 -7.53822,24.576732 -0.96875,2.692135 -2.16892,6.048663 -2.66704,7.45895 -2.0269,5.738636 -5.89875,14.012281 -9.64291,20.605671 -2.34395,4.12764 -5.59744,10.07667 -9.04188,16.53314 -0.8585,1.60924 -2.06192,3.53819 -2.67425,4.28657 -0.61233,0.74837 -2.17852,3.36078 -3.48043,5.80536 -1.30191,2.44458 -4.27847,7.32638 -6.61458,10.84846 -2.33612,3.52207 -5.49584,8.34082 -7.0216,10.70832 -1.52577,2.36749 -3.91965,5.91615 -5.31974,7.8859 -3.637691,5.11776 -10.566421,16.00054 -13.732112,21.56867 -1.489213,2.61937 -4.331342,7.17994 -6.315844,10.13458 -1.984502,2.95465 -5.040977,7.83621 -6.792167,10.84792 -1.75119,3.01171 -3.643677,6.19021 -4.205525,7.06333 -2.247765,3.49307 -7.339298,10.4395 -9.114811,12.43542 -6.558872,7.37306 -12.393842,15.44532 -14.165719,19.59724 -0.554682,1.29974 -1.636419,3.73239 -2.40386,5.40588 -0.767441,1.67349 -1.835689,4.53099 -2.373886,6.35 -1.544343,5.21961 -2.495236,8.05748 -4.033788,12.03854 -0.787348,2.03729 -1.886113,4.95433 -2.441701,6.48229 -4.217615,11.59922 -6.21479,14.92204 -14.106388,23.46968 -1.236612,1.33941 -2.941033,3.54207 -3.787601,4.89479 -6.538016,10.44702 -10.9718463,16.03963 -16.7796111,21.16496 -3.8086803,3.36114 -5.5006969,4.4395 -6.9714717,4.44309 -1.2695782,0.003 -2.7255211,-0.66857 -3.2784466,-1.51244 l -0.4207067,-0.64208 -0.6765845,0.88006 c -3.1717204,4.12561 -8.3731934,8.04043 -11.3515954,8.54363 -1.617504,0.27328 -3.29513,-0.5547 -4.223814,-2.08463 -0.399486,-0.65812 -0.799442,-1.20034 -0.888792,-1.20494 -0.08935,-0.005 -0.497886,0.47566 -0.907859,1.06725 -2.684002,3.87302 -8.035029,6.4462 -10.640295,5.11667 z m 51.436163,-54.54946 c -0.346537,-0.56071 -0.759745,-5.57319 -0.624862,-7.57999 0.07907,-1.17638 0.411369,-2.97231 0.738446,-3.99096 0.327077,-1.01865 0.794163,-2.79982 1.037969,-3.95817 l 0.443285,-2.10608 0.158318,1.70921 c 0.10414,1.12431 0.01121,2.43354 -0.271573,3.82587 -0.295762,1.45626 -0.434791,3.5786 -0.445598,6.80229 -0.01329,3.96565 -0.08204,4.75215 -0.447423,5.11862 -0.246192,0.24692 -0.499117,0.32394 -0.588562,0.17921 z"
       id="path1" /></g></svg>
